<svg xmlns="http://www.w3.org/2000/svg" width="115" height="30" fill="none" viewBox="0 0 115 30"><path fill="#30293D" d="M103.389 7.385v14.246a.177.177 0 00.177.177h10.259a.177.177 0 00.177-.177v-2.325a.177.177 0 00-.177-.177h-7.575V7.385a.17.17 0 00-.109-.161.153.153 0 00-.067-.012h-2.508a.17.17 0 00-.067.012.169.169 0 00-.096.094.171.171 0 00-.014.067zm-4.349 1.92a6.99 6.99 0 00-5.304-2.325c-4.326 0-7.453 3.521-7.453 7.58a7.628 7.628 0 002.282 5.403 7.623 7.623 0 005.442 2.182 7.854 7.854 0 006.189-2.794l.381-.45a.193.193 0 00.034-.067.19.19 0 00-.023-.145.187.187 0 00-.053-.052l-2.15-1.304a.174.174 0 00-.222.035l-.305.347a4.91 4.91 0 01-3.851 1.649 4.81 4.81 0 01-4.655-3.403h11.395a.175.175 0 00.176-.167l.028-.492c.111-2.437-.599-4.516-1.912-5.997zm-9.938 6.475v.046c.01-.018.004-.032 0-.046zm.218-2.613a4.51 4.51 0 014.416-3.428c1.968 0 3.634 1.3 4.157 3.428H89.32zM78.254 24.803L85.573 7.52a.177.177 0 00-.163-.245h-2.698a.168.168 0 00-.098.028.163.163 0 00-.065.079l-4.004 9.435-4.343-9.425a.182.182 0 00-.16-.105h-2.715a.19.19 0 00-.149.084.172.172 0 00-.02.083c0 .03.006.058.02.083l5.888 12.826-1.829 4.319a.184.184 0 00.017.164.175.175 0 00.064.057.167.167 0 00.082.021h2.695a.174.174 0 00.159-.121zm-9.417-2.995a.172.172 0 00.124-.052.173.173 0 00.052-.125V7.465a.177.177 0 00-.176-.177H66.3a.177.177 0 00-.177.177V21.63c0 .047.02.092.052.125a.173.173 0 00.125.052h2.535zM51.955 7.288H49.53a.167.167 0 00-.145.08.16.16 0 00-.03.079.175.175 0 00.013.084L55.22 21.7a.177.177 0 00.163.108h2.255a.174.174 0 00.162-.108l6.17-14.18a.177.177 0 00.021-.084.159.159 0 00-.022-.083.17.17 0 00-.145-.08h-2.737a.175.175 0 00-.159.107l-4.402 10.157-4.41-10.143a.179.179 0 00-.162-.108zm-5.244 1.213c-1.04-1.009-2.47-1.522-4.156-1.522a8.175 8.175 0 00-5.508 2.111l-.498.416a.183.183 0 00-.063.139.173.173 0 00.073.135l2.01 1.484a.184.184 0 00.21 0l.326-.243c.883-.645 1.856-1.283 3.464-1.283 1.174 0 1.839.375 2.234.85.43.587.646 1.304.61 2.03v.16c-1.857 0-4.102 0-5.913.517a5.503 5.503 0 00-2.539 1.386 3.966 3.966 0 00-1.067 2.86c0 2.773 2.463 4.603 5.462 4.603 1.46.04 2.89-.42 4.056-1.3v.787a.177.177 0 00.177.177h2.507a.177.177 0 00.177-.177V12.62c-.003-1.685-.537-3.11-1.562-4.118zm-1.302 8.53c-.326.836-1.455 2.326-4.056 2.326a3.306 3.306 0 01-1.819-.492 1.525 1.525 0 01-.727-1.324 1.395 1.395 0 01.491-1.14 3.46 3.46 0 011.542-.624 21.41 21.41 0 014.032-.215h.537v1.47z"/><path fill="#8661D1" fill-rule="evenodd" d="M15.803 2.358a1.52 1.52 0 00-1.712 0L6.276 7.662l-.062.045-1.705 1.156a1.584 1.584 0 00-.529 1.299 1.592 1.592 0 00.702 1.212l3.214 2.116 5.05-3.43a3.551 3.551 0 014.002-.001l3.924 2.667V5.8l-5.069-3.441zm4.252 12.332l-4.248-2.882a1.52 1.52 0 00-1.712 0l-4.31 2.923 4.292 2.826a1.518 1.518 0 001.712 0l4.1-2.782.166-.085zm2.882-.37c.352.104.686.261.99.466l5.522 3.753a1.051 1.051 0 01.46.874v9.447a1.05 1.05 0 01-.545.926 1.023 1.023 0 01-1.06-.052l-5.521-3.753a1.531 1.531 0 00-1.716 0l-4.115 2.782a3.558 3.558 0 01-4.001 0l-11.34-7.698A3.666 3.666 0 01.426 19.74a3.698 3.698 0 01-.427-1.731v-6.642a3.7 3.7 0 011.605-3.056l1.679-1.138c.08-.066.165-.13.254-.189l1.535-1.03 7.875-5.34a3.54 3.54 0 013.986-.001l5.522 3.752a1.053 1.053 0 01.457.875l.025 9.08zm-20.86-3.168a1.286 1.286 0 000 .215v6.642a1.562 1.562 0 00.688 1.308l11.33 7.72a1.52 1.52 0 001.712 0l4.1-2.782a3.558 3.558 0 014.002 0l3.928 2.667v-6.95l-5.073-3.441a1.525 1.525 0 00-1.715 0l-4.097 2.782a3.553 3.553 0 01-3.994 0l-9.395-6.175a3.62 3.62 0 01-1.487-1.986z" clip-rule="evenodd"/><path fill="#91919D" d="M95.212 30h2.054c1.162 0 1.732-.592 1.732-1.383 0-.768-.545-1.22-1.085-1.247v-.05c.496-.116.887-.462.887-1.08 0-.755-.545-1.316-1.645-1.316H95.21V30zm.919-.768v-1.487h1.013c.568 0 .92.347.92.8 0 .404-.278.687-.944.687h-.99zm0-2.149v-1.4h.93c.54 0 .82.285.82.676 0 .446-.362.724-.84.724h-.91zM100.297 30h3.321v-.77h-2.402v-1.386h2.211v-.77h-2.211v-1.379h2.382v-.77h-3.301V30zm4.514-4.305h1.569V30h.912v-4.305h1.569v-.77h-4.05v.77zM110.178 30l.419-1.252h1.908l.422 1.252h.981l-1.789-5.076h-1.135L109.197 30h.981zm.667-1.99l.686-2.045h.04l.687 2.045h-1.413z"/></svg>